{"title":"Scott.Pilgrim.vs.the.World.2010.CAM.XviD-p2p [Russian Audio]","uid":5778675,"size":734849024,"categoryP":"video","categoryS":"movies","magnet":"?xt=urn:btih:be2a7f4495d4198db4890f357890d46b3ff2f65e&amp;dn=Scott.Pilgrim.vs.the.World.2010.CAM.XviD-p2p+%5BRussian+Audio%5D&amp;tr=udp%3A%2F%2Ftracker.openbittorrent.com%3A80&amp;tr=udp%3A%2F%2Fopen.demonii.com%3A1337&amp;tr=udp%3A%2F%2Ftracker.coppersurfer.tk%3A6969&amp;tr=udp%3A%2F%2Fexodus.desync.com%3A6969","seeders":0,"leechers":0,"uploader":"johnnyrep","files":-1,"time":1282338539,"description":" &lt;a href=&quot;http://www.imdb.com/title/tt0446029/&quot; rel=&quot;nofollow&quot; target=&quot;_NEW&quot;&gt;http://www.imdb.com/title/tt0446029/&lt;/a&gt;\nRUSSIAN AUDIO\n &lt;a href=&quot;\nhttp://shareimage.ro/images/fb1ccjc66n7fho9fdugm.png&quot; rel=&quot;nofollow&quot; target=&quot;_NEW&quot;&gt;\nhttp://shareimage.ro/images/fb1ccjc66n7fho9fdugm.png&lt;/a&gt;\n\n\nFormat : AVI\nFormat/Info : Audio Video Interleave\nFile size : 701 MiB\nDuration : 1h 45mn\nOverall bit rate : 933 Kbps\nWriting application : VirtualDubMod 1.5.10.2 (build 2540/release)\nWriting library : VirtualDubMod build 2540/release\n\nVideo\nFormat : MPEG-4 Visual\nFormat profile : Streaming Video@L1\nFormat settings, BVOP : Yes\nFormat settings, QPel : No\nFormat settings, GMC : No warppoints\nFormat settings, Matrix : Custom\nCodec ID : XVID\nCodec ID/Hint : XviD\nDuration : 1h 45mn\nBit rate : 795 Kbps\nWidth : 720 pixels\nHeight : 368 pixels\nDisplay aspect ratio : 1.957\nFrame rate : 25.000 fps\nResolution : 24 bits\nColorimetry : 4:2:0\nScan type : Progressive\nBits/(Pixel*Frame) : 0.120\nStream size : 597 MiB (85%)\nWriting library : XviD 1.2.1 (UTC 2008-12-04)\n\nAudio RUSSIAN\nFormat : AC-3\nFormat/Info : Audio Coding 3\nCodec ID : 2000\nDuration : 1h 45mn\nBit rate mode : Constant\nBit rate : 128 Kbps\nChannel(s) : 2 channels\nChannel positions : L R\nSampling rate : 48.0 KHz\nStream size : 96.2 MiB (14%)\nAlignment : Aligned on interleaves\nInterleave, duration : 40 ms (1.00 video frame)\nInterleave, preload duration : 512 ms\n\nThanks to pitic","torrent":{"xt":"urn:btih:be2a7f4495d4198db4890f357890d46b3ff2f65e","amp;dn":"Scott.Pilgrim.vs.the.World.2010.CAM.XviD-p2p+%5BRussian+Audio%5D","amp;tr":["udp%3A%2F%2Ftracker.openbittorrent.com%3A80","udp%3A%2F%2Fopen.demonii.com%3A1337","udp%3A%2F%2Ftracker.coppersurfer.tk%3A6969","udp%3A%2F%2Fexodus.desync.com%3A6969"],"infoHash":"be2a7f4495d4198db4890f357890d46b3ff2f65e","infoHashBuffer":{"type":"Buffer","data":[190,42,127,68,149,212,25,141,180,137,15,53,120,144,212,107,63,242,246,94]},"announce":[],"urlList":[]}}